<svg width="459" height="459" viewBox="0 0 459 459" fill="none" xmlns="http://www.w3.org/2000/svg">
<circle cx="229.5" cy="229.5" r="229.5" fill="#60a5fa"/>
<path d="M119.438 171.664C94.4751 203.258 73.9993 229.169 73.9411 229.244C73.8414 229.352 79.8745 237.022 119.305 286.915L164.777 344.453L229.637 344.478L294.496 344.495L339.976 286.94C381.717 234.13 385.457 229.377 385.349 229.227C385.291 229.144 364.823 203.233 339.868 171.647L294.496 114.234L229.662 114.225H164.827L119.438 171.664ZM287.366 129.2C287.457 129.308 303.986 150.199 324.079 175.636L360.627 221.881L305.457 221.923C275.109 221.948 250.245 221.981 250.187 222.006C250.137 222.031 234.29 202.053 213.357 175.561C193.148 149.992 176.619 129.067 176.619 129.05C176.619 129.034 201.499 129.017 231.905 129.017H287.2L287.366 129.2ZM200.884 183.738C220.637 208.735 236.833 229.235 236.875 229.285C236.925 229.343 224.111 245.623 201.001 274.865C181.231 299.887 165.01 320.404 164.952 320.462C164.861 320.554 158.271 312.252 128.812 274.982C97.1841 234.969 92.7881 229.368 92.8796 229.244C93.5527 228.28 164.869 138.175 164.91 138.216C164.944 138.258 181.131 158.734 200.884 183.738ZM360.585 236.831C360.602 236.856 344.115 257.755 323.947 283.283L287.266 329.695L231.93 329.703C187.68 329.703 176.619 329.678 176.686 329.595C176.727 329.545 193.065 308.87 212.975 283.666C232.894 258.462 249.389 237.595 249.622 237.296L250.054 236.756L305.299 236.781C335.689 236.789 360.56 236.814 360.585 236.831Z" fill="white"/>
</svg>
